<svg width="24" height="24" viewBox="0 0 24 24" fill="none" xmlns="http://www.w3.org/2000/svg">
<g clip-path="url(#clip0_702_6696)">
<path d="M10.5354 12.2315C10.5359 12.4846 10.4359 12.7276 10.2574 12.907C10.0789 13.0864 9.83641 13.1877 9.5833 13.1884H1.96672C1.84136 13.1882 1.71727 13.1632 1.60156 13.115C1.48584 13.0667 1.38077 12.9962 1.29235 12.9073C1.20393 12.8184 1.13389 12.713 1.08624 12.597C1.0386 12.4811 1.01427 12.3569 1.01465 12.2315V1.69524C1.0144 1.56982 1.03884 1.44559 1.0866 1.32962C1.13436 1.21366 1.20449 1.10824 1.29298 1.01937C1.38148 0.930513 1.48662 0.859953 1.60239 0.811723C1.71815 0.763493 1.84229 0.738537 1.9677 0.738281L9.58427 0.750976C9.83722 0.75201 10.0794 0.85335 10.2577 1.03276C10.436 1.21217 10.5359 1.45498 10.5354 1.70793V12.2315Z" stroke="#E6F4F1" stroke-width="1.29838" stroke-linecap="round" stroke-linejoin="round"/>
<path d="M22.9817 6.39019C22.9798 6.64098 22.8786 6.88078 22.7 7.05693C22.5215 7.23307 22.2804 7.33113 22.0296 7.32957H14.413C14.2888 7.33047 14.1656 7.30688 14.0505 7.26015C13.9354 7.21341 13.8307 7.14446 13.7423 7.05721C13.6539 6.96997 13.5835 6.86616 13.5352 6.7517C13.4869 6.63725 13.4617 6.51441 13.4609 6.39019V1.69038C13.4625 1.43985 13.5634 1.20019 13.7416 1.02405C13.9197 0.847912 14.1605 0.749702 14.4111 0.751L22.0276 0.738306C22.2787 0.736486 22.5202 0.834404 22.6991 1.01055C22.8779 1.18669 22.9796 1.42664 22.9817 1.67768V6.39019Z" stroke="#E6F4F1" stroke-width="1.29838" stroke-linecap="round" stroke-linejoin="round"/>
<path d="M10.5354 21.7671C10.5346 21.8917 10.5093 22.0148 10.461 22.1295C10.4126 22.2443 10.3421 22.3484 10.2535 22.4359C10.1649 22.5234 10.06 22.5926 9.94464 22.6395C9.8293 22.6865 9.70585 22.7102 9.58134 22.7094L1.96477 22.6968C1.71398 22.6978 1.47305 22.5992 1.29489 22.4227C1.11674 22.2462 1.01594 22.0062 1.01465 21.7554V17.0595C1.01529 16.9352 1.04043 16.8122 1.08863 16.6976C1.13684 16.5829 1.20716 16.4789 1.29558 16.3915C1.384 16.3041 1.48879 16.235 1.60395 16.1881C1.71911 16.1412 1.84238 16.1174 1.96672 16.1182H9.58329C9.83433 16.1169 10.0756 16.2153 10.2541 16.3918C10.4327 16.5683 10.5338 16.8085 10.5354 17.0595V21.7671Z" stroke="#E6F4F1" stroke-width="1.29838" stroke-linecap="round" stroke-linejoin="round"/>
<path d="M14.414 22.709C14.2885 22.7087 14.1643 22.6837 14.0484 22.6354C13.9326 22.5871 13.8274 22.5165 13.7389 22.4275C13.6504 22.3386 13.5803 22.233 13.5326 22.1169C13.4849 22.0009 13.4606 21.8765 13.4609 21.751V11.2167C13.4606 11.0913 13.4849 10.967 13.5325 10.851C13.5802 10.735 13.6502 10.6295 13.7386 10.5406C13.827 10.4516 13.9321 10.381 14.0478 10.3326C14.1635 10.2843 14.2876 10.2592 14.413 10.2588H22.0296C22.155 10.2592 22.2791 10.2843 22.3948 10.3326C22.5105 10.381 22.6156 10.4516 22.704 10.5406C22.7924 10.6295 22.8624 10.735 22.9101 10.851C22.9577 10.967 22.982 11.0913 22.9817 11.2167V21.7383C22.9822 21.9914 22.8824 22.2343 22.7041 22.4138C22.5258 22.5934 22.2836 22.695 22.0306 22.6963L14.414 22.709Z" stroke="#E6F4F1" stroke-width="1.29838" stroke-linecap="round" stroke-linejoin="round"/>
</g>
<defs>
<clipPath id="clip0_702_6696">
<rect width="23.4356" height="23.4356" fill="white" transform="translate(0.282227)"/>
</clipPath>
</defs>
</svg>
