<svg width="24" height="24" viewBox="0 0 24 24" fill="none" xmlns="http://www.w3.org/2000/svg">
<g clip-path="url(#clip0_702_5353)">
<path d="M1.47202 13.3569C1.93753 14.4522 2.61423 15.4452 3.46349 16.279C4.31274 17.1129 5.31791 17.7712 6.42162 18.2166C7.52532 18.662 8.70593 18.8856 9.89606 18.8747C11.0862 18.8638 12.2625 18.6186 13.3579 18.1531C14.4532 17.6875 15.4462 17.0108 16.28 16.1616C17.1138 15.3123 17.7722 14.3072 18.2176 13.2035C18.6629 12.0997 18.8865 10.9191 18.8756 9.72901C18.8647 8.53889 18.6195 7.36257 18.154 6.26721C17.6885 5.17185 17.0118 4.17891 16.1625 3.34508C15.3133 2.51124 14.3081 1.85285 13.2044 1.40748C12.1007 0.962114 10.9201 0.738499 9.72996 0.749404C8.53984 0.760308 7.36352 1.00552 6.26816 1.47103C5.17281 1.93655 4.17987 2.61325 3.34604 3.46251C2.5122 4.31176 1.85381 5.31694 1.40845 6.42064C0.963084 7.52435 0.739473 8.70496 0.750381 9.89509C0.761289 11.0852 1.0065 12.2615 1.47202 13.3569Z" stroke="black" stroke-width="1.5" stroke-linecap="round" stroke-linejoin="round"/>
<path d="M16.2207 16.2197L23.2497 23.2497" stroke="black" stroke-width="1.5" stroke-linecap="round" stroke-linejoin="round"/>
</g>
<defs>
<clipPath id="clip0_702_5353">
<rect width="24" height="24" fill="white"/>
</clipPath>
</defs>
</svg>
