<svg width="26" height="26" viewBox="0 0 26 26" fill="none" xmlns="http://www.w3.org/2000/svg">
<path d="M13.9579 23.2749H12.0333C11.5796 23.2749 11.1444 23.0946 10.8236 22.7738C10.5027 22.453 10.3225 22.0178 10.3225 21.5641V20.4541C10.317 20.3887 10.293 20.3262 10.2533 20.2739C10.2137 20.2216 10.16 20.1817 10.0985 20.1588C10.0362 20.1188 9.96371 20.0976 9.88971 20.0976C9.81571 20.0976 9.74326 20.1188 9.68095 20.1588L8.92738 20.9734C8.76931 21.1326 8.58131 21.259 8.37421 21.3452C8.1671 21.4314 7.94499 21.4758 7.72066 21.4758C7.49633 21.4758 7.27421 21.4314 7.06711 21.3452C6.86 21.259 6.672 21.1326 6.51393 20.9734L5.11882 19.6089C4.95733 19.4511 4.82907 19.2626 4.74162 19.0545C4.65418 18.8463 4.6093 18.6228 4.60965 18.3971C4.6103 17.9353 4.7933 17.4924 5.11882 17.1649L5.87238 16.4113C5.90876 16.3552 5.92812 16.2898 5.92812 16.2229C5.92812 16.156 5.90876 16.0906 5.87238 16.0345C5.81128 15.8818 5.70945 15.7698 5.56688 15.7698H4.52818C4.07352 15.7671 3.63839 15.5846 3.31784 15.2621C2.99729 14.9396 2.81737 14.5034 2.81738 14.0488V12.1241C2.81738 11.6704 2.99763 11.2352 3.31846 10.9144C3.6393 10.5936 4.07445 10.4133 4.52818 10.4133H5.63817C5.70356 10.4078 5.76604 10.3838 5.81833 10.3442C5.87062 10.3045 5.91055 10.2508 5.93348 10.1893C5.9734 10.127 5.99462 10.0545 5.99462 9.98053C5.99462 9.90653 5.9734 9.83408 5.93348 9.77177L5.11882 9.0182C4.95964 8.86013 4.8333 8.67213 4.74709 8.46503C4.66088 8.25792 4.61649 8.03581 4.61649 7.81148C4.61649 7.58715 4.66088 7.36503 4.74709 7.15793C4.8333 6.95082 4.95964 6.76282 5.11882 6.60475L6.48338 5.20964C6.63959 5.04891 6.82638 4.92107 7.03275 4.83362C7.23911 4.74618 7.46089 4.70091 7.68502 4.70047C7.91541 4.69946 8.14374 4.74391 8.35693 4.83128C8.57011 4.91865 8.76396 5.04723 8.92738 5.20964L9.68095 5.9632C9.73705 5.99958 9.80248 6.01894 9.86934 6.01894C9.9362 6.01894 10.0016 5.99958 10.0577 5.9632C10.2105 5.9021 10.3225 5.80027 10.3225 5.6577V4.619C10.3252 4.16434 10.5077 3.72921 10.8301 3.40866C11.1526 3.08811 11.5888 2.9082 12.0435 2.9082H14.019C14.4728 2.9082 14.9079 3.08845 15.2288 3.40928C15.5496 3.73012 15.7298 4.16527 15.7298 4.619V5.72899C15.7354 5.79438 15.7594 5.85687 15.799 5.90915C15.8387 5.96144 15.8924 6.00137 15.9539 6.0243C16.0162 6.06422 16.0886 6.08544 16.1626 6.08544C16.2366 6.08544 16.3091 6.06422 16.3714 6.0243L17.074 5.20964C17.2321 5.05046 17.4201 4.92412 17.6272 4.83791C17.8343 4.7517 18.0564 4.70732 18.2808 4.70732C18.5051 4.70732 18.7272 4.7517 18.9343 4.83791C19.1414 4.92412 19.3294 5.05046 19.4875 5.20964L20.8826 6.5742C21.0436 6.73231 21.1716 6.92088 21.259 7.12893C21.3464 7.33698 21.3916 7.56035 21.3918 7.78602C21.3967 8.01544 21.354 8.2434 21.2663 8.45548C21.1787 8.66756 21.048 8.85917 20.8826 9.0182L20.129 9.77177C20.0927 9.82787 20.0733 9.8933 20.0733 9.96016C20.0733 10.027 20.0927 10.0925 20.129 10.1486C20.1901 10.3013 20.292 10.4133 20.4345 10.4133H21.5445C21.9867 10.4343 22.4038 10.6248 22.7091 10.9453C23.0145 11.2658 23.1845 11.6916 23.184 12.1343V14.1099C23.184 14.5636 23.0038 14.9988 22.683 15.3196C22.3621 15.6404 21.927 15.8207 21.4732 15.8207H20.3633C20.2979 15.8262 20.2354 15.8502 20.1831 15.8898C20.1308 15.9295 20.0909 15.9832 20.0679 16.0447C20.0316 16.1008 20.0122 16.1662 20.0122 16.2331C20.0122 16.3 20.0316 16.3654 20.0679 16.4215L20.8521 17.2056C21.0112 17.3637 21.1376 17.5517 21.2238 17.7588C21.31 17.9659 21.3544 18.188 21.3544 18.4123C21.3544 18.6367 21.31 18.8588 21.2238 19.0659C21.1376 19.273 21.0112 19.461 20.8521 19.6191L19.518 20.9734C19.3618 21.1342 19.1751 21.262 18.9687 21.3494C18.7623 21.4369 18.5405 21.4822 18.3164 21.4826C17.8617 21.4766 17.4271 21.294 17.1046 20.9734L16.3205 20.2199C16.2644 20.1835 16.199 20.1641 16.1321 20.1641C16.0652 20.1641 15.9998 20.1835 15.9437 20.2199C15.7909 20.281 15.6789 20.3828 15.6789 20.5254V21.6354C15.658 22.0775 15.4675 22.4946 15.1469 22.7999C14.8264 23.1053 14.4006 23.2754 13.9579 23.2749ZM12.3592 21.2382H13.6423V20.4541C13.6466 19.9845 13.7902 19.5267 14.0549 19.1388C14.3195 18.7509 14.6934 18.4502 15.129 18.2749C15.5665 18.0836 16.051 18.027 16.5207 18.1123C16.9904 18.1975 17.4241 18.4207 17.7665 18.7535L18.3164 19.3034L19.2125 18.4072L18.6626 17.8472C18.332 17.51 18.109 17.0821 18.022 16.618C17.935 16.1538 17.9878 15.6743 18.1738 15.2402C18.3508 14.8065 18.6521 14.4348 19.0399 14.172C19.4277 13.9092 19.8846 13.7671 20.3531 13.7636H21.1474V12.45H20.3633C19.8937 12.4456 19.4359 12.3021 19.048 12.0374C18.66 11.7727 18.3594 11.3989 18.184 10.9632C17.9928 10.5258 17.9362 10.0413 18.0215 9.57155C18.1067 9.10181 18.3299 8.6681 18.6626 8.32574L19.2125 7.77584L18.3164 6.8797L17.7563 7.4296C17.4139 7.7424 16.9892 7.95083 16.5323 8.03037C16.0754 8.10991 15.6052 8.05723 15.1772 7.87854C14.7492 7.69986 14.3812 7.4026 14.1165 7.02178C13.8518 6.64095 13.7014 6.19242 13.683 5.72899V4.94487H12.3592V5.72899C12.3548 6.19859 12.2112 6.65634 11.9466 7.04428C11.6819 7.43222 11.3081 7.73289 10.8724 7.90822C10.435 8.09943 9.95047 8.15603 9.48073 8.07079C9.01099 7.98554 8.57728 7.76233 8.23492 7.4296L7.68502 6.8797L6.78888 7.77584L7.33878 8.33592C7.65158 8.67836 7.86001 9.10305 7.93955 9.55997C8.01909 10.0169 7.96641 10.487 7.78772 10.915C7.60904 11.343 7.31178 11.711 6.93096 11.9758C6.55013 12.2405 6.1016 12.3909 5.63817 12.4093H4.85405V13.6924H5.63817C6.10777 13.6967 6.56552 13.8403 6.95346 14.105C7.3414 14.3696 7.64207 14.7435 7.8174 15.1791C8.00861 15.6166 8.06521 16.101 7.97997 16.5708C7.89472 17.0405 7.67151 17.4742 7.33878 17.8166L6.78888 18.3665L7.68502 19.2626L8.2451 18.7127C8.58754 18.3999 9.01222 18.1915 9.46915 18.112C9.92607 18.0324 10.3962 18.0851 10.8242 18.2638C11.2522 18.4425 11.6202 18.7397 11.8849 19.1206C12.1497 19.5014 12.3001 19.9499 12.3184 20.4134L12.3592 21.2382Z" fill="white"/>
<path d="M13.0007 16.6557C12.2958 16.6557 11.6067 16.4467 11.0206 16.055C10.4345 15.6634 9.97763 15.1067 9.70787 14.4555C9.43811 13.8042 9.36752 13.0876 9.50505 12.3962C9.64257 11.7048 9.98203 11.0697 10.4805 10.5713C10.9789 10.0728 11.614 9.73337 12.3054 9.59585C12.9968 9.45832 13.7134 9.52891 14.3647 9.79867C15.0159 10.0684 15.5726 10.5253 15.9642 11.1114C16.3559 11.6975 16.5649 12.3866 16.5649 13.0915C16.5649 14.0368 16.1894 14.9434 15.521 15.6118C14.8526 16.2802 13.946 16.6557 13.0007 16.6557ZM13.0007 11.564C12.6986 11.564 12.4033 11.6536 12.1521 11.8215C11.9009 11.9893 11.7051 12.2279 11.5895 12.507C11.4739 12.7861 11.4436 13.0932 11.5026 13.3895C11.5615 13.6858 11.707 13.958 11.9206 14.1716C12.1343 14.3853 12.4064 14.5307 12.7027 14.5897C12.999 14.6486 13.3062 14.6184 13.5853 14.5028C13.8644 14.3871 14.103 14.1914 14.2708 13.9402C14.4386 13.689 14.5282 13.3936 14.5282 13.0915C14.5282 12.6864 14.3673 12.2979 14.0808 12.0114C13.7944 11.725 13.4058 11.564 13.0007 11.564Z" fill="white"/>
</svg>
