<svg width="24" height="24" viewBox="0 0 24 24" fill="none" xmlns="http://www.w3.org/2000/svg">
<g clip-path="url(#clip0_702_6703)">
<path d="M0.497261 15.6004L2.45413 17.5569C2.59147 17.6942 2.77772 17.7713 2.97191 17.7713C3.16611 17.7713 3.35236 17.6942 3.48969 17.5569C3.6932 17.3523 3.93528 17.1901 4.20191 17.0796C4.46854 16.9692 4.75444 16.9127 5.04303 16.9135C6.25473 16.9135 7.24012 17.8989 7.24012 19.1106C7.24083 19.3993 7.1843 19.6852 7.0738 19.9519C6.96331 20.2186 6.80104 20.4608 6.59637 20.6643C6.45908 20.8017 6.38195 20.9879 6.38195 21.1821C6.38195 21.3763 6.45908 21.5626 6.59637 21.6999L8.55325 23.6564C8.69642 23.7996 8.88354 23.871 9.07103 23.871C9.25851 23.871 9.446 23.7996 9.58881 23.6564L23.5037 9.74152C23.5719 9.67361 23.6259 9.59292 23.6628 9.50407C23.6997 9.41521 23.7187 9.31995 23.7187 9.22374C23.7187 9.12753 23.6997 9.03226 23.6628 8.94341C23.6259 8.85456 23.5719 8.77386 23.5037 8.70596L21.5468 6.74945C21.4095 6.61216 21.2232 6.53503 21.029 6.53503C20.8348 6.53503 20.6486 6.61216 20.5113 6.74945C20.3078 6.95409 20.0657 7.11632 19.799 7.22676C19.5324 7.33719 19.2465 7.39364 18.9579 7.39283C17.7462 7.39283 16.7608 6.40744 16.7608 5.19575C16.7608 4.60876 16.9897 4.05729 17.4046 3.64204C17.5419 3.5047 17.619 3.31846 17.619 3.12426C17.619 2.93006 17.5419 2.74382 17.4046 2.60648L15.4477 0.649973C15.3104 0.512676 15.1241 0.435547 14.9299 0.435547C14.7357 0.435547 14.5495 0.512676 14.4121 0.649973L0.497261 14.5649C0.429103 14.6328 0.375023 14.7135 0.338122 14.8023C0.301222 14.8912 0.282227 14.9864 0.282227 15.0826C0.282227 15.1788 0.301222 15.2741 0.338122 15.363C0.375023 15.4518 0.429103 15.5325 0.497261 15.6004ZM9.80339 7.32985L10.3842 7.91061C10.527 8.05379 10.7144 8.1252 10.9019 8.1252C11.0894 8.1252 11.2769 8.05379 11.4197 7.91061C11.557 7.77327 11.6341 7.58703 11.6341 7.39283C11.6341 7.19864 11.557 7.01239 11.4197 6.87505L10.8389 6.29429L14.9299 2.20331L15.9025 3.17552C15.5053 3.77427 15.2943 4.47723 15.2961 5.19575C15.2961 7.21487 16.9388 8.85756 18.9579 8.85756C19.6763 8.85955 20.3792 8.64867 20.9778 8.25153L21.95 9.22374L17.8594 13.3147L17.2786 12.734C17.2111 12.664 17.1302 12.6082 17.0409 12.5698C16.9515 12.5314 16.8554 12.5112 16.7582 12.5104C16.661 12.5096 16.5645 12.5281 16.4745 12.5649C16.3845 12.6017 16.3027 12.6561 16.234 12.7249C16.1652 12.7936 16.1108 12.8754 16.074 12.9654C16.0372 13.0554 16.0187 13.1519 16.0195 13.2491C16.0203 13.3463 16.0405 13.4424 16.0789 13.5318C16.1173 13.6211 16.1731 13.702 16.2431 13.7695L16.8238 14.3503L9.07103 22.1031L8.09845 21.1309C8.49565 20.5321 8.70665 19.8291 8.70485 19.1106C8.70485 17.0915 7.06216 15.4488 5.04303 15.4488C4.32466 15.4468 3.6218 15.6577 3.02318 16.0548L2.05097 15.0826L9.80339 7.32985Z" fill="#00F6C1"/>
<path d="M12.5815 10.1076C12.7243 10.2508 12.9118 10.3222 13.0992 10.3222C13.2867 10.3222 13.4742 10.2508 13.617 10.1076C13.7543 9.97028 13.8314 9.78403 13.8314 9.58983C13.8314 9.39564 13.7543 9.20939 13.617 9.07205L12.8847 8.33969C12.8171 8.26974 12.7363 8.21395 12.6469 8.17557C12.5576 8.13718 12.4615 8.11698 12.3642 8.11614C12.267 8.11529 12.1706 8.13382 12.0806 8.17065C11.9906 8.20747 11.9088 8.26185 11.84 8.33061C11.7713 8.39938 11.7169 8.48115 11.6801 8.57115C11.6432 8.66116 11.6247 8.75759 11.6255 8.85484C11.6264 8.95208 11.6466 9.04818 11.685 9.13753C11.7234 9.22688 11.7792 9.30769 11.8491 9.37525L12.5815 10.1076ZM14.0462 11.5723L14.7785 12.3047C14.9214 12.4479 15.1088 12.5193 15.2963 12.5193C15.4838 12.5193 15.6713 12.4479 15.8141 12.3047C15.9514 12.1674 16.0285 11.9811 16.0285 11.7869C16.0285 11.5927 15.9514 11.4065 15.8141 11.2691L15.0817 10.5368C15.0142 10.4668 14.9334 10.411 14.844 10.3727C14.7547 10.3343 14.6586 10.3141 14.5613 10.3132C14.4641 10.3124 14.3677 10.3309 14.2776 10.3677C14.1876 10.4046 14.1059 10.4589 14.0371 10.5277C13.9683 10.5965 13.914 10.6782 13.8771 10.7682C13.8403 10.8582 13.8218 10.9547 13.8226 11.0519C13.8235 11.1492 13.8437 11.2453 13.8821 11.3346C13.9204 11.424 13.9762 11.5048 14.0462 11.5723Z" fill="#00F6C1"/>
</g>
<defs>
<clipPath id="clip0_702_6703">
<rect width="23.4356" height="23.4356" fill="white" transform="translate(0.282227 0.435547)"/>
</clipPath>
</defs>
</svg>
