<svg width="21" height="26" viewBox="0 0 21 26" fill="none" xmlns="http://www.w3.org/2000/svg">
<path d="M10.3711 5.05885C10.7861 5.05885 11.7721 5.32129 11.7721 5.32129C14.4434 5.93342 16.3236 8.39389 16.3236 11.1719V18.6491L16.8697 19.1978L17.3261 19.6562H3.29895L3.75527 19.1978L4.30143 18.6491V11.1719C4.30143 8.39395 6.18164 5.93342 8.85287 5.32129C8.85287 5.32129 9.91008 5.05885 10.2539 5.05885M10.3125 0.8125C9.28113 0.8125 8.49264 1.60457 8.49264 2.64062V3.49369C5.03473 4.28605 2.42643 7.45469 2.42643 11.1719V17.875L0 20.3125V21.5313H20.625V20.3125L18.1986 17.875V11.1719C18.1986 7.45469 15.5902 4.28605 12.1324 3.49369V2.64062C12.1324 1.60457 11.3439 0.8125 10.3125 0.8125ZM12.7389 22.75H7.88602C7.88602 24.0907 8.97779 25.1875 10.3125 25.1875C11.6472 25.1875 12.7389 24.0907 12.7389 22.75Z" fill="black"/>
</svg>
