<svg width="11" height="20" viewBox="0 0 11 20" fill="none" xmlns="http://www.w3.org/2000/svg">
<path d="M2.38628 5.70679L5.67928 2.41379L8.97228 5.70679C9.16088 5.88894 9.41348 5.98974 9.67568 5.98746C9.93788 5.98518 10.1887 5.88001 10.3741 5.6946C10.5595 5.5092 10.6647 5.25838 10.667 4.99619C10.6692 4.73399 10.5684 4.48139 10.3863 4.29279L6.38628 0.292786C6.19875 0.105315 5.94444 0 5.67928 0C5.41412 0 5.15981 0.105315 4.97228 0.292786L0.972281 4.29279C0.87677 4.38503 0.800588 4.49538 0.748179 4.61738C0.69577 4.73939 0.668184 4.87061 0.66703 5.00339C0.665876 5.13616 0.691178 5.26784 0.741459 5.39074C0.791739 5.51364 0.865993 5.62529 0.959885 5.71918C1.05378 5.81307 1.16543 5.88733 1.28833 5.93761C1.41122 5.98789 1.5429 6.01319 1.67568 6.01204C1.80846 6.01088 1.93968 5.9833 2.06168 5.93089C2.18369 5.87848 2.29403 5.8023 2.38628 5.70679ZM0.972281 15.7068L4.97228 19.7068C5.15981 19.8943 5.41412 19.9996 5.67928 19.9996C5.94444 19.9996 6.19875 19.8943 6.38628 19.7068L10.3863 15.7068C10.5684 15.5182 10.6692 15.2656 10.667 15.0034C10.6647 14.7412 10.5595 14.4904 10.3741 14.305C10.1887 14.1196 9.93788 14.0144 9.67568 14.0121C9.41348 14.0098 9.16088 14.1106 8.97228 14.2928L5.67928 17.5858L2.38628 14.2928C2.29403 14.1973 2.18369 14.1211 2.06168 14.0687C1.93968 14.0163 1.80846 13.9887 1.67568 13.9875C1.5429 13.9864 1.41122 14.0117 1.28833 14.062C1.16543 14.1122 1.05378 14.1865 0.959885 14.2804C0.865993 14.3743 0.791739 14.4859 0.741459 14.6088C0.691178 14.7317 0.665876 14.8634 0.66703 14.9962C0.668184 15.129 0.69577 15.2602 0.748179 15.3822C0.800588 15.5042 0.87677 15.6145 0.972281 15.7068Z" fill="white"/>
</svg>
