<svg width="17" height="20" viewBox="0 0 17 20" fill="none" xmlns="http://www.w3.org/2000/svg">
<path d="M0.0195312 10C0.0195312 10.2652 0.124888 10.5196 0.312425 10.7071C0.499961 10.8946 0.754315 11 1.01953 11H8.60953L6.30953 13.29C6.2158 13.383 6.14141 13.4936 6.09064 13.6154C6.03987 13.7373 6.01373 13.868 6.01373 14C6.01373 14.132 6.03987 14.2627 6.09064 14.3846C6.14141 14.5064 6.2158 14.617 6.30953 14.71C6.40249 14.8037 6.5131 14.8781 6.63495 14.9289C6.75681 14.9797 6.88752 15.0058 7.01953 15.0058C7.15154 15.0058 7.28225 14.9797 7.40411 14.9289C7.52597 14.8781 7.63657 14.8037 7.72953 14.71L11.7295 10.71C11.8206 10.6149 11.8919 10.5028 11.9395 10.38C12.0395 10.1365 12.0395 9.86346 11.9395 9.62C11.8919 9.49725 11.8206 9.3851 11.7295 9.29L7.72953 5.29C7.63629 5.19676 7.5256 5.1228 7.40378 5.07234C7.28196 5.02188 7.15139 4.99591 7.01953 4.99591C6.88767 4.99591 6.7571 5.02188 6.63528 5.07234C6.51346 5.1228 6.40277 5.19676 6.30953 5.29C6.21629 5.38324 6.14233 5.49393 6.09187 5.61575C6.04141 5.73757 6.01544 5.86814 6.01544 6C6.01544 6.13186 6.04141 6.26243 6.09187 6.38425C6.14233 6.50607 6.21629 6.61676 6.30953 6.71L8.60953 9H1.01953C0.754315 9 0.499961 9.10536 0.312425 9.29289C0.124888 9.48043 0.0195313 9.73478 0.0195312 10ZM13.0195 0H3.01953C2.22388 0 1.46082 0.316071 0.898211 0.87868C0.335602 1.44129 0.0195313 2.20435 0.0195312 3V6C0.0195312 6.26522 0.124888 6.51957 0.312425 6.70711C0.499961 6.89464 0.754315 7 1.01953 7C1.28475 7 1.5391 6.89464 1.72664 6.70711C1.91417 6.51957 2.01953 6.26522 2.01953 6V3C2.01953 2.73478 2.12489 2.48043 2.31242 2.29289C2.49996 2.10536 2.75431 2 3.01953 2H13.0195C13.2847 2 13.5391 2.10536 13.7266 2.29289C13.9142 2.48043 14.0195 2.73478 14.0195 3V17C14.0195 17.2652 13.9142 17.5196 13.7266 17.7071C13.5391 17.8946 13.2847 18 13.0195 18H3.01953C2.75431 18 2.49996 17.8946 2.31242 17.7071C2.12489 17.5196 2.01953 17.2652 2.01953 17V14C2.01953 13.7348 1.91417 13.4804 1.72664 13.2929C1.5391 13.1054 1.28475 13 1.01953 13C0.754315 13 0.499961 13.1054 0.312425 13.2929C0.124888 13.4804 0.0195313 13.7348 0.0195312 14V17C0.0195312 17.7956 0.335602 18.5587 0.898211 19.1213C1.46082 19.6839 2.22388 20 3.01953 20H13.0195C13.8152 20 14.5782 19.6839 15.1409 19.1213C15.7035 18.5587 16.0195 17.7956 16.0195 17V3C16.0195 2.20435 15.7035 1.44129 15.1409 0.87868C14.5782 0.316071 13.8152 0 13.0195 0Z" fill="white"/>
</svg>
